<svg xmlns="http://www.w3.org/2000/svg" version="1.1" xmlns:xlink="http://www.w3.org/1999/xlink" width="512" height="512" x="0" y="0" viewBox="0 0 60 60" style="enable-background:new 0 0 512 512" xml:space="preserve" class=""><g><path d="M59.709 28.721C58.135 25.423 49.314 9 30 9S1.862 25.429.291 28.721a2.935 2.935 0 0 0 0 2.556C1.862 34.571 10.682 51 30 51s28.138-16.429 29.709-19.721a2.936 2.936 0 0 0 0-2.558ZM2.094 30.414a.955.955 0 0 1 0-.83 35.848 35.848 0 0 1 10.464-12.862 21.639 21.639 0 0 0-.024 26.539 35.867 35.867 0 0 1-10.44-12.847ZM19.913 47.27a19.993 19.993 0 0 1 0-34.534A29.281 29.281 0 0 1 30 11a29.285 29.285 0 0 1 10.087 1.73 19.993 19.993 0 0 1 0 34.534A29.285 29.285 0 0 1 30 49a29.285 29.285 0 0 1-10.087-1.73Zm37.992-16.854A35.889 35.889 0 0 1 47.548 43.2a21.739 21.739 0 0 0-.065-26.447 35.867 35.867 0 0 1 10.422 12.831.955.955 0 0 1 0 .832Z" fill="#008936" opacity="1" data-original="#000000"></path><path d="M46 30a16 16 0 1 0-16 16 16.019 16.019 0 0 0 16-16Zm-2 0a13.922 13.922 0 0 1-3.432 9.154L31 29.586V16.051A14.007 14.007 0 0 1 44 30ZM29 16.051V29H16.051A14 14 0 0 1 29 16.051ZM16.051 31h13.535l9.568 9.568A13.967 13.967 0 0 1 16.051 31Z" fill="#008936" opacity="1" data-original="#000000"></path><path d="M24 22h2a1 1 0 0 0 0-2h-2a1 1 0 0 0 0 2ZM24 33h-2a1 1 0 0 0 0 2h2a1 1 0 0 0 0-2ZM38 30h2a1 1 0 0 0 0-2h-2a1 1 0 0 0 0 2Z" fill="#008936" opacity="1" data-original="#000000"></path></g></svg>